<svg width="173" height="182" viewBox="0 0 173 182" fill="none" xmlns="http://www.w3.org/2000/svg">
<path d="M71.4033 175.154C70.1043 174.974 69.4491 176.421 70.7245 177.266C84.8969 186.649 101.169 179.999 105.515 175.154C107.007 173.491 106.119 173.529 104.377 174.504C87.1861 184.124 75.3104 175.694 71.4033 175.154Z" fill="white"/>
<path d="M72.5267 165.519C70.2014 164.556 69.0084 167.224 71.4033 168.618C85.9008 177.052 101.711 170.396 105.544 165.519C106.83 163.882 105.951 163.891 104.286 164.854C86.2406 172.814 77.0121 167.376 72.5267 165.519Z" fill="white"/>
<path d="M73.7065 155.704C70.6124 154.389 68.6157 157.951 71.7556 159.765C85.2492 167.563 98.5519 161.912 103.43 157.734C106.844 154.81 107.463 153.423 103.43 155.303C86.36 163.263 77.7065 157.404 73.7065 155.704Z" fill="white"/>
<path d="M71.3036 148.312C70.636 142.525 67.2086 115.427 57.485 105.914C34.0745 83.0092 46.2674 32.4889 88.0486 32.4889C129.83 32.4889 142.023 83.0092 118.612 105.914C108.889 115.427 105.461 142.525 104.794 148.312C103.168 150.099 96.6649 153.348 88.0486 153.348C79.4322 153.348 72.9294 150.099 71.3036 148.312Z" fill="white"/>
<path d="M160.213 114.099C164.737 119.021 162.834 122.172 156.281 120.844C151.046 119.784 141.838 115.001 145.087 109.809C148.336 104.617 156.679 110.255 160.213 114.099Z" fill="white"/>
<path d="M166.029 63.1863C172.705 63.5432 173.546 67.1267 167.932 70.758C163.447 73.6593 153.519 76.6755 152.213 70.6914C150.907 64.7074 160.815 62.9076 166.029 63.1863Z" fill="white"/>
<path d="M148.603 16.7646C154.854 14.3937 157.072 17.3318 153.404 22.9215C150.473 27.3877 142.611 34.1581 138.998 29.2119C135.386 24.2657 143.721 18.6163 148.603 16.7646Z" fill="white"/>
<path d="M91.9447 4.76888C89.9707 -1.61856 86.2902 -1.56063 84.1374 4.76888C82.4173 9.82618 81.9131 20.19 88.0349 19.9974C94.1568 19.8047 93.4863 9.75744 91.9447 4.76888Z" fill="white"/>
<path d="M27.2609 16.7646C21.0099 14.3937 18.7924 17.3318 22.4601 22.9215C25.3907 27.3877 33.2536 34.1581 36.866 29.2119C40.4783 24.2657 32.1428 18.6163 27.2609 16.7646Z" fill="white"/>
<path d="M6.80603 63.1863C0.13005 63.5432 -0.711232 67.1267 4.90227 70.758C9.38748 73.6593 19.3156 76.6755 20.6215 70.6914C21.9273 64.7074 12.0199 62.9076 6.80603 63.1863Z" fill="white"/>
<path d="M15.6516 114.099C11.127 119.021 13.0303 122.172 19.5829 120.844C24.8184 119.784 34.0263 115.001 30.7772 109.809C27.5281 104.617 19.1852 110.255 15.6516 114.099Z" fill="white"/>
</svg>
